HIERARCHY
ROOT Hips
{
	OFFSET 0.00000 0.00000 0.00000
	CHANNELS 6 Xposition Yposition Zposition Zrotation Yrotation Xrotation 
	JOINT LHipJoint
	{
		OFFSET 0 0 0
		CHANNELS 3 Zrotation Yrotation Xrotation
		JOINT LeftHip
		{
			OFFSET 1.54859 -1.61379 0.86856
			CHANNELS 3 Zrotation Yrotation Xrotation
			JOINT LeftKnee
			{
				OFFSET 2.25087 -6.18423 0.00000
				CHANNELS 3 Zrotation Yrotation Xrotation
				JOINT LeftAnkle
				{
					OFFSET 2.40328 -6.60297 0.00000
					CHANNELS 3 Zrotation Yrotation Xrotation
					JOINT LeftToe
					{
						OFFSET 0.17435 -0.47901 2.02453
						CHANNELS 3 Zrotation Yrotation Xrotation
						End Site
						{
							OFFSET 0.00000 -0.00000 1.04844
						}
					}
				}
			}
		}
	}
	JOINT RHipJoint
	{
		OFFSET 0 0 0
		CHANNELS 3 Zrotation Yrotation Xrotation
		JOINT RightHip
		{
			OFFSET -1.54669 -1.61379 0.86856
			CHANNELS 3 Zrotation Yrotation Xrotation
			JOINT RightKnee
			{
				OFFSET -2.28132 -6.26789 0.00000
				CHANNELS 3 Zrotation Yrotation Xrotation
				JOINT RightAnkle
				{
					OFFSET -2.51636 -6.91365 0.00000
					CHANNELS 3 Zrotation Yrotation Xrotation
					JOINT RightToe
					{
						OFFSET -0.15124 -0.41552 2.21090
						CHANNELS 3 Zrotation Yrotation Xrotation
						End Site
						{
							OFFSET -0.00000 -0.00000 1.13399
						}
					}
				}
			}
		}
	}
	JOINT lowerback
	{
		OFFSET 0 0 0
		CHANNELS 3 Zrotation Yrotation Xrotation
		JOINT Chest
		{
			OFFSET -0.04287 2.26161 -0.25690
			CHANNELS 3 Zrotation Yrotation Xrotation
			JOINT Chest2
			{
				OFFSET 0.02248 2.28395 -0.10140
				CHANNELS 3 Zrotation Yrotation Xrotation
				JOINT lowerneck
				{
					OFFSET 0 0 0
					CHANNELS 3 Zrotation Yrotation Xrotation
					JOINT Neck
					{
						OFFSET -0.11644 1.38496 0.11345
						CHANNELS 3 Zrotation Yrotation Xrotation
						JOINT Head
						{
							OFFSET 0.29383 1.36600 0.06642
							CHANNELS 3 Zrotation Yrotation Xrotation
							End Site
							{
								OFFSET 0.11075 1.41395 -0.00294
							}
						}
					}
				}
				JOINT LeftCollar
				{
					OFFSET 0 0 0
					CHANNELS 3 Zrotation Yrotation Xrotation
					JOINT LeftShoulder
					{
						OFFSET 3.51628 0.59542 -0.30346
CHANNELS 3 Zrotation Xrotation Yrotation
						JOINT LeftElbow
						{
OFFSET 0 -4.764050 0.000000
CHANNELS 3 Zrotation Xrotation Yrotation
							JOINT LeftWrist
							{
OFFSET 0 -3.137590 -0.000000
CHANNELS 3 Zrotation Xrotation Yrotation
								JOINT lhand
								{
									OFFSET 0 0 0
CHANNELS 3 Zrotation Xrotation Yrotation
									JOINT LFingers
									{
OFFSET 0 -0.732260 -0.000000
CHANNELS 3 Zrotation Xrotation Yrotation
										End Site
										{
OFFSET 0 -0.590370 -0.000000
										}
									}
								}
								JOINT LThumb
								{
OFFSET 0 0.000000 0.000000
CHANNELS 3 Zrotation Xrotation Yrotation
									End Site
									{
OFFSET 0 -0.599380 0.599380
									}
								}
							}
						}
					}
				}
				JOINT RightCollar
				{
					OFFSET 0 0 0
					CHANNELS 3 Zrotation Yrotation Xrotation
					JOINT RightShoulder
					{
						OFFSET -3.30990 0.84213 -0.36430
CHANNELS 3 Zrotation Xrotation Yrotation
						JOINT RightElbow
						{
OFFSET 0 -5.101610 -0.000000
CHANNELS 3 Zrotation Xrotation Yrotation
							JOINT RightWrist
							{
OFFSET 0 -3.232670 -0.000000
CHANNELS 3 Zrotation Xrotation Yrotation
								JOINT rhand
								{
									OFFSET 0 0 0
CHANNELS 3 Zrotation Xrotation Yrotation
									JOINT RFingers
									{
OFFSET 0 -0.702000 -0.000000
CHANNELS 3 Zrotation Xrotation Yrotation
										End Site
										{
OFFSET 0 -0.565970 -0.000000
										}
									}
								}
								JOINT RThumb
								{
OFFSET 0 0.000000 0.000000
CHANNELS 3 Zrotation Xrotation Yrotation
									End Site
									{
OFFSET 0 -0.574610 0.574610
									}
								}
							}
						}
					}
				}
			}
		}
	}
}
MOTION
Frames: 4
Frame Time: 0.008333333333333333
-33.037700 15.114700 2.097100 -175.515000 -5.454900 -175.445000 0.000000 0.000000 0.000000 -3.888000 7.452200 -35.241900 6.989400 15.322900 48.834200 0.412700 -10.997900 -12.882800 2.135500 -9.142800 -26.243100 0.000000 0.000000 0.000000 19.172600 -9.057500 -37.696100 -9.626600 -17.194400 58.232800 -1.376500 -2.356000 -23.124000 -0.204500 2.911800 -8.033300 -11.644200 3.011700 25.417700 0.854800 -0.729900 8.166200 7.911300 -1.195000 -4.893900 -18.225200 -12.635800 -8.235100 38.411000 -9.808400 -17.797100 16.061200 -3.289700 0.414900 -0.000000 -0.000000 0.000000 15.528300 -2.428000 -36.486100 26.582700 -37.778300 9.242300 12.579200 -15.515300 -14.424200 0.000000 0.000000 0.000000 -7.125000 0.000000 0.000000 -13.717200 44.300800 -0.241400 -0.000000 -0.000000 0.000000 4.510600 -6.226000 25.878700 -31.814800 -42.399000 -12.615700 -18.723400 -18.689400 -32.726200 0.000000 0.000000 0.000000 7.125000 0.000000 -0.000000 7.436200 -3.923000 7.993300
-33.022516 15.093727 2.114299 -175.333364 -5.506127 -175.207454 0.000000 0.000000 0.000000 -3.591791 7.360275 -35.900643 7.134056 15.440765 49.374425 0.399929 -11.134014 -12.799758 2.076128 -9.020224 -25.860557 0.000000 0.000000 0.000000 19.286605 -8.938982 -38.320758 -9.757520 -17.269495 58.672444 -1.362707 -2.563065 -23.109725 -0.189118 2.794418 -7.707263 -11.575547 3.060798 25.550124 0.859000 -0.670499 8.163419 7.863365 -1.161851 -4.976488 -18.338950 -11.174169 -8.203484 38.231209 -9.906256 -19.072611 16.124460 -4.637298 -0.018813 0.000000 0.000000 0.000000 15.734542 -2.797828 -36.067287 26.517680 -37.715125 9.202567 12.663008 -15.533237 -14.534232 0.000000 0.000000 0.000000 -7.125000 0.000000 0.000000 -13.674118 44.419261 -0.200191 0.000000 0.000000 0.000000 4.427785 -6.176760 25.628723 -32.362858 -42.823745 -12.990580 -19.146527 -19.432519 -32.923871 0.000000 0.000000 0.000000 7.125000 0.000000 0.000000 7.227971 -4.206948 7.796934
-33.007333 15.072753 2.131497 -175.151728 -5.557354 -174.969908 0.000000 0.000000 0.000000 -3.295583 7.268350 -36.559386 7.278712 15.558630 49.914651 0.387157 -11.270127 -12.716717 2.016755 -8.897648 -25.478015 0.000000 0.000000 0.000000 19.400610 -8.820465 -38.945416 -9.888440 -17.344590 59.112089 -1.348914 -2.770130 -23.095449 -0.173735 2.677035 -7.381227 -11.506894 3.109897 25.682548 0.863201 -0.611099 8.160637 7.815430 -1.128703 -5.059075 -18.452699 -9.712538 -8.171868 38.051417 -10.004113 -20.348122 16.187721 -5.984895 -0.452526 0.000000 0.000000 0.000000 15.940784 -3.167656 -35.648474 26.452660 -37.651949 9.162834 12.746816 -15.551173 -14.644263 0.000000 0.000000 0.000000 -7.125000 0.000000 0.000000 -13.631036 44.537722 -0.158983 0.000000 0.000000 0.000000 4.344971 -6.127519 25.378747 -32.910917 -43.248489 -13.365460 -19.569654 -20.175637 -33.121542 0.000000 0.000000 0.000000 7.125000 0.000000 0.000000 7.019743 -4.490896 7.600569
-32.992149 15.051780 2.148696 -174.970092 -5.608581 -174.732362 0.000000 0.000000 0.000000 -2.999374 7.176425 -37.218129 7.423368 15.676494 50.454876 0.374386 -11.406241 -12.633675 1.957383 -8.775072 -25.095472 0.000000 0.000000 0.000000 19.514615 -8.701947 -39.570073 -10.019360 -17.419685 59.551733 -1.335121 -2.977195 -23.081174 -0.158353 2.559653 -7.055190 -11.438242 3.158995 25.814972 0.867401 -0.551698 8.157856 7.767495 -1.095554 -5.141663 -18.566449 -8.250907 -8.140252 37.871626 -10.101969 -21.623633 16.250981 -7.332493 -0.886239 0.000000 0.000000 0.000000 16.147026 -3.537484 -35.229661 26.387640 -37.588774 9.123101 12.830624 -15.569110 -14.754295 0.000000 0.000000 0.000000 -7.125000 0.000000 0.000000 -13.587955 44.656182 -0.117774 0.000000 0.000000 0.000000 4.262156 -6.078279 25.128770 -33.458975 -43.673234 -13.740339 -19.992781 -20.918756 -33.319213 0.000000 0.000000 0.000000 7.125000 0.000000 0.000000 6.811514 -4.774845 7.404203
